<?xml version="1.0" encoding="UTF-8"?>
<svg id="_レイヤー_1" data-name="レイヤー 1" xmlns="http://www.w3.org/2000/svg" version="1.1" viewBox="0 0 283.5 283.5">
  <defs>
    <style>
      .cls-1 {
        fill: #5fa1ab;
      }

      .cls-1, .cls-2, .cls-3, .cls-4, .cls-5, .cls-6, .cls-7 {
        stroke-width: 0px;
      }

      .cls-2 {
        fill: #9085a4;
      }

      .cls-3 {
        fill: #bb819c;
      }

      .cls-8 {
        fill: #fff;
        stroke: #a5a7a8;
        stroke-width: .9px;
      }

      .cls-8, .cls-9 {
        stroke-miterlimit: 10;
      }

      .cls-4 {
        fill: #a9ae67;
      }

      .cls-5 {
        fill: #231815;
      }

      .cls-6 {
        fill: #dd974d;
      }

      .cls-9 {
        fill: none;
        stroke: #d2d3d3;
        stroke-width: .4px;
      }

      .cls-7 {
        fill: #8f9bb3;
      }
    </style>
  </defs>
  <line class="cls-9" x1="58.6" y1="93.7" x2="224.8" y2="189.7"/>
  <line class="cls-9" x1="141.7" y1="45.8" x2="141.7" y2="237.7"/>
  <line class="cls-9" x1="58.6" y1="189.7" x2="224.8" y2="93.7"/>
  <polygon class="cls-9" points="58.6 93.7 58.6 189.7 141.7 237.7 224.8 189.7 224.8 93.7 141.7 45.8 58.6 93.7"/>
  <path class="cls-8" d="M261,193c0,18.2-14.7,32.9-32.9,32.9s-32.9-14.7-32.9-32.9,14.7-32.9,32.9-32.9,32.9,14.7,32.9,32.9Z"/>
  <g>
    <path class="cls-3" d="M217.2,213.1c-1.6-.4-2.1-.8-2.4-1.1-.7.6-1.3.9-2.5,1.2l-.4-.5c1.3-.2,1.9-.6,2.5-1.1-.3-.3-1-1.1-1.4-2.9h-1.1v-.5h2.5v-.9h.5c0,0,.1,0,.1.1s0,0-.2.2v.6h2.6v.5h-1.1c-.4,1.7-1.1,2.6-1.4,2.9.7.5,1.3.8,2.5,1l-.4.5ZM213.6,208.7c.3,1.5,1,2.3,1.2,2.6.3-.4.9-1.1,1.2-2.6h-2.4Z"/>
    <path class="cls-3" d="M220.3,207.7c-.1.3-.3.7-.5,1.1.1,0,.2,0,.2.1s0,0-.1.1v4.1h-.5v-3.7c-.3.5-.5.8-.8,1.1l-.4-.3c.2-.2.6-.7,1.1-1.5.3-.5.5-1,.7-1.6l.5.2c0,0,0,0,0,0,0,0,0,0-.2.1ZM224.2,209.4c0,0-.1,0-.1,0-.7.4-1.2.6-2,.9v2c0,.3,0,.4.4.4h.8c.4,0,.4-.1.6-1l.4.3c-.2,1.1-.5,1.1-.9,1.1h-1c-.7,0-.8-.3-.8-.8v-4.9h.5c0,0,.1,0,.1.1s0,.1-.2.2v2.1c.7-.2,1.3-.5,1.8-1l.4.4s0,0,0,.1c0,0,0,0-.1,0Z"/>
    <path class="cls-3" d="M228.4,210.3c0,.3-.3.6-.6.6s-.6-.3-.6-.6.3-.6.6-.6.6.3.6.6Z"/>
    <path class="cls-3" d="M231.4,208.6v-.4h2.6v-.8h.6c0,0,.1,0,.1.1,0,0,0,.1-.2.2v.6h2.6v.4h-5.7ZM236.8,213.2c-1.4-.2-2.1-.7-2.5-1-.6.5-1.4.8-2.6,1l-.3-.5c1.1-.1,1.9-.4,2.5-.9-.5-.5-.8-1.1-1-1.8h.4c.1.2.4.9.9,1.5.4-.4.6-.9.9-1.6l.5.2c-.4.9-.7,1.3-1,1.7.2.2,1,.7,2.4.8l-.3.5ZM233.6,209.4c0,0-.1,0-.2,0-.7.6-1.1.8-1.4.9l-.3-.4c.5-.2,1-.5,1.6-1.1l.4.3c0,0,0,0,0,.1s0,0,0,0ZM236.6,210.2c-.9-.5-1.3-.8-1.6-1.1l.3-.3c.6.5,1,.7,1.6,1l-.3.4Z"/>
    <path class="cls-3" d="M238.1,209.3c.4.2.7.3,1,.5l-.2.4c-.2-.1-.5-.3-1-.5l.2-.4ZM239.6,210.8c-.4,1-.7,1.6-1,2.1,0,0,0,0,0,.1s0,0,0,0,0,0-.1,0l-.5-.3c.5-.7.9-1.6,1.2-2.3l.4.3ZM238.7,207.5c.5.3.7.5,1,.7l-.3.4c-.3-.3-.6-.5-.9-.7l.3-.4ZM239.3,212.8c.3-.2.7-.5.8-1,.1-.4.1-.9.1-1.5h.5s.1,0,.1.1,0,0-.2.1c0,1.3,0,2-1,2.6l-.4-.3ZM243.2,210.4c-.1-.2-.4-.5-.4-.6-.5.1-.9.2-2,.3-.1,0-.7,0-.8.1,0,0,0,.1-.2.1s0,0,0-.1v-.5s.1,0,.6,0c.3-.4.4-.7.5-1h-1.4v-.4h1.8v-.9h.5c0,0,.1,0,.1.1s0,0-.2.1v.7h1.8v.4h-2.2c-.2.3-.4.6-.6.9,1.2-.2,1.3-.2,1.7-.2-.2-.2-.2-.2-.3-.4l.3-.3c.5.5.8.9,1.1,1.3l-.4.3ZM241.2,210.2h.5c0,0,.1,0,.1.1s-.1.1-.2.1v2.6h-.4v-2.8ZM242.6,213c-.4,0-.4-.3-.4-.4v-2.4h.5c0,0,.1,0,.1.1s0,0-.1.2v1.9c0,.2.1.2.2.2h.2c.2,0,.2-.2.3-.6l.4.2c0,.7-.2.8-.5.8h-.6Z"/>
  </g>
  <g>
    <path class="cls-3" d="M219.9,173.6c-.2.4-.7,1.4-2,1.4s-2.2-.8-2.2-2.5.6-2.4,2.2-2.4,1.7.8,1.9,1.5l-.9.2c0-.5-.5-.9-1-.9-.8,0-1.3.6-1.3,1.6s.3,1.7,1.3,1.7,1-.5,1.1-1l.8.3Z"/>
    <path class="cls-3" d="M222.8,174.9v-.3c-.2.2-.5.4-1.1.4s-.8-.2-1-.4c-.2-.3-.2-.6-.2-.9v-2.1h.8v1.9c0,.3,0,.7.7.7s.6-.3.7-.4c.1-.2.1-.6.1-.8v-1.5h.8v3.4h-.8Z"/>
    <path class="cls-3" d="M224.6,174.9v-4.7h.8v4.7h-.8Z"/>
    <path class="cls-3" d="M226,171.6h.5v-1.2h.8v1.2h.7v.6h-.7v1.7c0,.1,0,.3,0,.4,0,.1.3.1.3.1.1,0,.2,0,.3,0v.7c-.1,0-.3,0-.6,0-.7,0-.9-.3-.9-.8v-2h-.5v-.6Z"/>
    <path class="cls-3" d="M230.9,174.9v-.3c-.2.2-.5.4-1.1.4s-.8-.2-1-.4c-.2-.3-.2-.6-.2-.9v-2.1h.8v1.9c0,.3,0,.7.7.7s.6-.3.7-.4c.1-.2.1-.6.1-.8v-1.5h.8v3.4h-.8Z"/>
    <path class="cls-3" d="M233.4,171.6v.5c.3-.5.8-.6,1-.6h0v.8c-.2,0-.8,0-1,.6,0,.2,0,.4,0,.5v1.4h-.8v-3.4h.8Z"/>
    <path class="cls-3" d="M237.1,174.9v-.3c-.2.2-.6.3-1,.3-.8,0-1.2-.5-1.2-1s.6-1,1.2-1.1c.5,0,.8-.2,1-.2,0-.3,0-.5-.6-.5s-.7.3-.7.5h-.8c0-.3,0-1.1,1.5-1.1s1.4.4,1.4,1v2c0,.3,0,.3.1.5h-1ZM237.1,173.3c-.1,0-.3.1-.6.2-.4,0-.7.1-.7.5s.1.4.6.4.8-.2.8-.6v-.5Z"/>
    <path class="cls-3" d="M238.9,174.9v-4.7h.8v4.7h-.8Z"/>
    <path class="cls-3" d="M211.4,182.3v-4.7h.9v4.7h-.9Z"/>
    <path class="cls-3" d="M214.2,178.9v.4c.3-.5.9-.5,1-.5.7,0,1.1.5,1.1,1.1v2.3h-.8v-1.9c0-.4,0-.8-.6-.8s-.3,0-.4.2c-.2.2-.3.5-.3,1.1v1.5h-.8v-3.4h.8Z"/>
    <path class="cls-3" d="M216.9,178.9h.5v-1.2h.8v1.2h.7v.6h-.7v1.7c0,.1,0,.3,0,.4,0,.1.3.1.3.1.1,0,.2,0,.3,0v.7c-.1,0-.3,0-.6,0-.7,0-.9-.3-.9-.8v-2h-.5v-.6Z"/>
    <path class="cls-3" d="M220.1,180.8c0,.2.2.8.9.8s.8-.3.9-.5l.7.4c-.3.4-.8.9-1.6.9s-1.7-.7-1.7-1.8.8-1.8,1.7-1.8c1.3,0,1.7,1,1.7,1.9h-2.5ZM221.7,180.2c0-.2-.1-.7-.8-.7s-.8.6-.8.7h1.6Z"/>
    <path class="cls-3" d="M224.2,178.9v.5c.3-.5.8-.6,1-.6h0v.8c-.2,0-.8,0-1,.6,0,.2,0,.4,0,.5v1.4h-.8v-3.4h.8Z"/>
    <path class="cls-3" d="M227.9,182.3v-.3c-.2.2-.6.3-1,.3-.8,0-1.2-.5-1.2-1s.6-1,1.2-1.1c.5,0,.8-.2,1-.2,0-.3,0-.5-.6-.5s-.7.3-.7.5h-.8c0-.3,0-1.1,1.5-1.1s1.4.4,1.4,1v2c0,.3,0,.3.1.5h-1ZM227.9,180.6c-.1,0-.3.1-.6.2-.4,0-.7.1-.7.5s.1.4.6.4.8-.2.8-.6v-.5Z"/>
    <path class="cls-3" d="M232.6,181.3c-.2.7-.8,1-1.5,1-1,0-1.7-.8-1.7-1.8s.6-1.8,1.7-1.8,1.3.6,1.4,1l-.7.3c0-.3-.3-.6-.8-.6s-.8.5-.8,1,.3,1,.8,1,.8-.5.8-.7l.7.4Z"/>
    <path class="cls-3" d="M232.9,178.9h.5v-1.2h.8v1.2h.7v.6h-.7v1.7c0,.1,0,.3,0,.4,0,.1.3.1.3.1.1,0,.2,0,.3,0v.7c-.1,0-.3,0-.6,0-.7,0-.9-.3-.9-.8v-2h-.5v-.6Z"/>
    <path class="cls-3" d="M235.5,178.4v-.8h.8v.8h-.8ZM235.5,182.3v-3.4h.8v3.4h-.8Z"/>
    <path class="cls-3" d="M238.9,182.4c-1.2,0-1.7-1-1.7-1.8s.5-1.8,1.7-1.8,1.7.5,1.7,1.8c0,.9-.6,1.8-1.7,1.8ZM238.9,181.6c.6,0,.9-.5.9-1s-.3-1.1-.9-1.1-.9.3-.9,1,.3,1.1.9,1.1Z"/>
    <path class="cls-3" d="M242.2,178.9v.4c.3-.5.9-.5,1-.5.7,0,1.1.5,1.1,1.1v2.3h-.8v-1.9c0-.4,0-.8-.6-.8s-.3,0-.4.2c-.2.2-.3.5-.3,1.1v1.5h-.8v-3.4h.8Z"/>
  </g>
  <path class="cls-8" d="M174.6,241c0,18.2-14.7,32.9-32.9,32.9s-32.9-14.7-32.9-32.9,14.7-32.9,32.9-32.9,32.9,14.7,32.9,32.9Z"/>
  <g>
    <path class="cls-1" d="M139.1,257.2v.9h1.5v2h-.5v-.4h-2.5v.4h-.5v-2h1.5v-.9h-2c0,.9-.3,1.9-.7,2.7l-.4-.3c.7-1.2.7-2.6.7-3.9s0-.7,0-1.3h4.7v1.5h-1.7v.8h2.2v.4h-2.2ZM138.6,256h-1.9c0,.4,0,.5,0,.8h2v-.8ZM140.3,254.9h-3.7v.7h3.7v-.7ZM140.1,258.5h-2.5v.9h2.5v-.9Z"/>
    <path class="cls-1" d="M141.9,257.1c.6-.6,1.1-1.4,1.5-2.8l.5.2s0,0,0,0,0,0-.2,0c-.3.6-.3.7-.5,1.1,0,0,.1,0,.1,0s0,.1-.2.2v4.2h-.5v-3.6c-.2.3-.4.5-.6.8l-.4-.3ZM147.8,256.2h-1.8v1.3h1.4v.4h-1.4v1.6h1.9v.4h-4.2v-.4h1.9v-1.6h-1.3v-.4h1.3v-1.3h-1.7v-.5h4v.5ZM145.5,254.3c.3.3.7.7,1,1.1l-.4.3c-.2-.3-.6-.8-.9-1l.4-.3Z"/>
  </g>
  <g>
    <path class="cls-1" d="M128.5,226.2v-4.7h.9v3.9h1.9v.8h-2.8Z"/>
    <path class="cls-1" d="M132.1,222.4v-.8h.8v.8h-.8ZM132.1,226.2v-3.4h.8v3.4h-.8Z"/>
    <path class="cls-1" d="M135.5,226.2h-.9l-1.1-3.4h.8l.7,2.3.7-2.3h.8l-1.1,3.4Z"/>
    <path class="cls-1" d="M139.2,226.2v-.3c-.2.2-.6.3-1,.3-.8,0-1.2-.5-1.2-1s.6-1,1.2-1.1c.5,0,.8-.2,1-.2,0-.3,0-.5-.6-.5s-.7.3-.7.5h-.8c0-.3,0-1.1,1.5-1.1s1.4.4,1.4,1v2c0,.3,0,.3.1.5h-1ZM139.2,224.6c-.1,0-.3.1-.6.2-.4,0-.7.1-.7.5s.1.4.6.4.8-.2.8-.6v-.5Z"/>
    <path class="cls-1" d="M141.8,221.5v1.7c.3-.3.8-.4,1-.4.8,0,1.5.7,1.5,1.8s-.8,1.8-1.5,1.8-.6,0-.9-.5v.3h-.8v-4.7h.8ZM142.6,225.6c.4,0,.8-.4.8-1.1s-.3-1-.8-1-.8.4-.8,1,.3,1.1.8,1.1Z"/>
    <path class="cls-1" d="M145,222.4v-.8h.8v.8h-.8ZM145,226.2v-3.4h.8v3.4h-.8Z"/>
    <path class="cls-1" d="M146.8,226.2v-4.7h.8v4.7h-.8Z"/>
    <path class="cls-1" d="M148.6,222.4v-.8h.8v.8h-.8ZM148.6,226.2v-3.4h.8v3.4h-.8Z"/>
    <path class="cls-1" d="M150,222.9h.5v-1.2h.8v1.2h.7v.6h-.7v1.7c0,.1,0,.3,0,.4,0,.1.3.1.3.1.1,0,.2,0,.3,0v.7c-.1,0-.3,0-.6,0-.7,0-.9-.3-.9-.8v-2h-.5v-.6Z"/>
    <path class="cls-1" d="M155.4,222.9l-.9,3.1c-.1.4-.3,1-.6,1.2-.2.2-.4.2-.7.2s-.3,0-.5,0v-.7c0,0,.2,0,.2,0,.4,0,.5-.3.5-.4l-1.2-3.4h.9l.8,2.5.6-2.5h.8Z"/>
  </g>
  <g>
    <path class="cls-5" d="M151.3,241.4l-3.5-3.5c-.1-.1-.2-.3-.2-.5v-4.8c0-.2-.1-.3-.3-.3h-2.3c-.2,0-.3.1-.3.3v1.9c0,.2,0,.2-.2,0l-2.5-2.5c-.1-.1-.3-.1-.4,0l-9.3,9.3c-.1.1-.1.3,0,.4l.9.9c.1.1.3.1.4,0l8-8c.1-.1.3-.1.4,0l2.5,2.5c.1.1.2.2.2.2,0,0,0,0,.2.2l2.5,2.5c.1.1.2.2.2.2,0,0,0,0,.2.2l2.2,2.2c.1.1.3.1.4,0l.9-.9c.1-.1.1-.3,0-.4Z"/>
    <path class="cls-5" d="M142,236c-.1-.1-.3-.1-.4,0l-6.4,6.4c-.1.1-.2.3-.2.5v6.2c0,.2.1.3.3.3h4.3c.2,0,.3-.1.3-.3v-3.3c0-.2.1-.3.3-.3h3.3c.2,0,.3.1.3.3v3.3c0,.2.1.3.3.3h4.3c.2,0,.3-.1.3-.3v-6.2c0-.2,0-.4-.2-.5l-6.4-6.4Z"/>
  </g>
  <path class="cls-8" d="M88.3,193c0,18.2-14.7,32.9-32.9,32.9s-32.9-14.7-32.9-32.9,14.7-32.9,32.9-32.9,32.9,14.7,32.9,32.9Z"/>
  <g>
    <path class="cls-4" d="M49.9,210.6h-.7v-.5h.7v-1.4h-.7v-.4h1.8v.4h-.6v1.4h.6v.5h-.6v1.5c.3-.1.3-.2.7-.3v.5c-.3.2-.6.3-1.4.7,0,0,0,.2-.1.2s0,0,0,0l-.2-.5c.2,0,.5-.2.7-.3v-1.7ZM53.3,211.7c.1.2.3.4.6.7.3-.2.5-.3.7-.6l.4.3s0,0,0,0,0,0-.2,0c-.3.2-.4.3-.7.4.4.3.6.4,1,.5l-.3.4c-.2,0-.7-.3-1.2-.7-.3-.3-.6-.6-.8-1v1.9h-.5v-1.6c-.5.5-1.1.9-1.9,1.3l-.4-.3c.8-.3,1.4-.7,2.1-1.3h-.7v-1.3h3.2v1.3h-1.3ZM51.1,209.7h3.9v.4h-3.9v-.4ZM51.3,209.4v-1.4h3.5v1.4h-3.5ZM52.3,208.4h-.6v.6h.6v-.6ZM54.2,210.8h-2.3v.6h2.3v-.6ZM53.3,208.4h-.6v.6h.6v-.6ZM54.4,208.4h-.6v.6h.6v-.6Z"/>
    <path class="cls-4" d="M56,212.9c0,0,0,.2-.1.2s0,0,0-.1v-.5c.1,0,.3,0,.7-.3v-2.2h-.8v-.4h.8v-1.6h.5c0,0,.1,0,.1.1,0,0,0,.1-.2.1v1.3h.6v.4h-.6v2.1c.4-.2.5-.2.8-.4v.5c-.5.3-1.1.5-1.8.8ZM61,213.5h-.8c-.4,0-.5,0-.5-.5v-.8h-.4c0,.4-.1,1.3-1.9,1.6l-.2-.5c.8,0,1.6-.3,1.7-1.2h-.7v-1.8h2.9v1.8h-.8v.6c0,.1,0,.3.3.3h.4c.3,0,.3,0,.5-.8l.4.3c-.2.8-.2,1-.6,1ZM57.8,210v-.4h1c-.1-.3-.2-.4-.3-.5l.3-.2h-.9v-.4h1.4v-.8h.5c0,0,.1,0,.1.1s0,0-.1.1v.5h1.5v.4h-1,.2c0,.1,0,.2,0,.2,0,0,0,0-.1,0,0,.2-.1.3-.2.4h1.2v.4h-3.6ZM60.5,210.7h-2v.4h2v-.4ZM60.5,211.4h-2v.4h2v-.4ZM59.8,209.5c0-.1.2-.3.3-.5h-1.3c.2.2.2.3.3.5h-.3c0,.1,1.3.1,1.3.1l-.3-.2Z"/>
  </g>
  <g>
    <path class="cls-4" d="M36,178.3v-4.7h3.4v.8h-2.5v1.1h2.3v.8h-2.3v1.3h2.7v.8h-3.5Z"/>
    <path class="cls-4" d="M41,174.9v.4c.3-.5.9-.5,1-.5.7,0,1.1.5,1.1,1.1v2.3h-.8v-1.9c0-.4,0-.8-.6-.8s-.3,0-.4.2c-.2.2-.3.5-.3,1.1v1.5h-.8v-3.4h.8Z"/>
    <path class="cls-4" d="M45.7,178.3h-.9l-1.1-3.4h.8l.7,2.3.7-2.3h.8l-1.1,3.4Z"/>
    <path class="cls-4" d="M47.5,174.4v-.8h.8v.8h-.8ZM47.5,178.3v-3.4h.8v3.4h-.8Z"/>
    <path class="cls-4" d="M50.1,174.9v.5c.3-.5.8-.6,1-.6h0v.8c-.2,0-.8,0-1,.6,0,.2,0,.4,0,.5v1.4h-.8v-3.4h.8Z"/>
    <path class="cls-4" d="M53.4,178.4c-1.2,0-1.7-1-1.7-1.8s.5-1.8,1.7-1.8,1.7.5,1.7,1.8c0,.9-.6,1.8-1.7,1.8ZM53.4,177.6c.6,0,.9-.5.9-1s-.3-1.1-.9-1.1-.9.3-.9,1,.3,1.1.9,1.1Z"/>
    <path class="cls-4" d="M56.7,174.9v.4c.3-.5.9-.5,1-.5.7,0,1.1.5,1.1,1.1v2.3h-.8v-1.9c0-.4,0-.8-.6-.8s-.3,0-.4.2c-.2.2-.3.5-.3,1.1v1.5h-.8v-3.4h.8Z"/>
    <path class="cls-4" d="M60.6,174.9v.4c.1-.2.5-.5,1.1-.5s.7.2.9.5c.2-.3.6-.5,1.1-.5s1.2.4,1.2,1.2v2.3h-.8v-2.1c0-.1,0-.7-.6-.7s-.4,0-.6.3c-.2.2-.2.5-.2.8v1.6h-.8v-2.1c0-.3-.1-.6-.6-.6s-.3,0-.4.2c-.3.3-.3.8-.3,1.1v1.4h-.8v-3.4h.8Z"/>
    <path class="cls-4" d="M66.4,176.7c0,.2.2.8.9.8s.8-.3.9-.5l.7.4c-.3.4-.8.9-1.6.9s-1.7-.7-1.7-1.8.8-1.8,1.7-1.8c1.3,0,1.7,1,1.7,1.9h-2.5ZM68,176.2c0-.2-.1-.7-.8-.7s-.8.6-.8.7h1.6Z"/>
    <path class="cls-4" d="M70.5,174.9v.4c.3-.5.9-.5,1-.5.7,0,1.1.5,1.1,1.1v2.3h-.8v-1.9c0-.4,0-.8-.6-.8s-.3,0-.4.2c-.2.2-.3.5-.3,1.1v1.5h-.8v-3.4h.8Z"/>
    <path class="cls-4" d="M73.2,174.9h.5v-1.2h.8v1.2h.7v.6h-.7v1.7c0,.1,0,.3,0,.4,0,.1.3.1.3.1.1,0,.2,0,.3,0v.7c-.1,0-.3,0-.6,0-.7,0-.9-.3-.9-.8v-2h-.5v-.6Z"/>
  </g>
  <path class="cls-5" d="M55.8,183.4c-.1-.1-.3-.1-.5,0,0,0-7.1,6-7.1,11s6,6.5,6,6.5c.2,0,.3.2.3.4v1.5c0,.2.1.3.3.3h1.5c.2,0,.3-.1.3-.3v-1.5c0-.2.1-.4.3-.4,0,0,6-2.1,6-6.5s-7.1-11-7.1-11ZM56.2,195.6l1.8-1.8c.1-.1.3-.1.4,0h.1c.1.3.1.5,0,.6l-2.4,2.4c-.1.1-.2.4-.2.5v1.3c0,.2-.1.3-.3.3h-.2c-.2,0-.3-.1-.3-.3v-3.4c0-.2-.1-.4-.2-.5l-2.4-2.4c-.1-.1-.1-.3,0-.4h.1c.1-.3.3-.3.4-.1l1.8,1.8c.1.1.2,0,.2,0v-5.7c0-.2.1-.3.3-.3h.2c.2,0,.3.1.3.3v3.6c0,.2,0,.2.2,0l1.8-1.8c.1-.1.3-.1.4,0h.1c.1.3.1.5,0,.6l-2.4,2.4c-.1.1-.2.4-.2.5v2.4c0,.2,0,.2.2,0Z"/>
  <path class="cls-8" d="M174.6,42.5c0,18.2-14.7,32.9-32.9,32.9s-32.9-14.7-32.9-32.9,14.7-32.9,32.9-32.9,32.9,14.7,32.9,32.9Z"/>
  <g>
    <path class="cls-2" d="M137.7,60.2c0-.1,0-.2-.2-.4,0,0-.3,0-.4.1v2.8h-.4v-2.7c-.2,0-.4,0-.9.2,0,0,0,.1-.1.1s0,0,0-.1v-.5c.1,0,.5,0,.6,0,0,0,.4-.6.5-.7-.5-.4-.7-.7-1.1-.9l.3-.4c.2.1.3.2.4.3.4-.6.6-1,.7-1.2l.5.2s0,0,0,0c0,0-.1,0-.2.1-.3.5-.5.7-.7,1,.3.2.3.3.4.4.4-.5.5-.8.6-1l.4.3s0,0,0,0,0,0-.2,0c-.6.8-.9,1.2-1.1,1.5.1,0,.3,0,.7-.1-.1-.3-.2-.3-.2-.4l.4-.2c.2.5.4.8.5,1.2h-.4ZM136.4,60.5c0,.6-.2,1.2-.5,1.7h-.4c.1-.5.3-.9.4-2h.4c0,0,.1,0,.1.1s0,0,0,0ZM137.6,61.8c0-.4-.1-.7-.4-1.4h.4c.2.5.3.8.4,1.3h-.4ZM137.9,62.4v-.4h1.6v-1h-1.1v-.4h1.1v-.9h.5c0,0,0,0,0,.1s0,0-.1.1v.6h1.1v.4h-1.1v1h1.5v.4h-3.6ZM141.1,59.8c-.4-.2-.9-.4-1.4-.7-.6.4-1,.6-1.4.8l-.3-.4c.6-.2,1-.4,1.4-.7-.3-.3-.5-.6-.7-1.1l.4-.2c.2.5.5.8.6,1,.3-.3.5-.6.6-1h-2.3v-.4h2.7l.2.2c-.2.6-.5,1-1,1.5.4.3.9.5,1.4.7l-.3.4Z"/>
    <path class="cls-2" d="M143,59.5c-.3-.2-.5-.4-1-.6l.2-.4c.4.2.7.3,1,.5l-.3.5ZM142.8,62.3c0,0,0,0,0,.1s0,0,0,0c0,0-.1,0-.1,0l-.4-.2c.4-.8.7-1.6,1-2.4l.4.3c-.2.8-.5,1.5-.8,2.2ZM143.3,57.7c-.3-.2-.6-.4-.9-.6l.3-.4c.4.2.7.4.9.6l-.2.4ZM147.7,59.7c-.8-.1-1.3-.3-1.8-.6-.4.2-1,.5-1.9.7l-.4-.5c.6,0,1.1-.2,1.8-.5-.4-.3-.7-.6-1-1.1h-.7v-.4h1.8v-.7h.4s.2,0,.2.1,0,0-.1.1v.4h1.9v.4h-.7c-.3.5-.6.8-.9,1.1.5.2,1.1.3,1.6.4l-.2.4ZM147.3,60v2.7h-.5v-1.1h-2.1c-.1.4-.3.8-.5,1.1l-.5-.2c.5-.7.7-1.2.7-1.9s0-.6,0-.8h.5s.1,0,.1,0,0,0-.1.1c0,0,0,.1,0,.2h2v-.4h.4c0,0,.1,0,.1.1,0,0,0,.1-.1.2ZM146.9,60.5h-2c0,.4,0,.5,0,.6h2.1v-.6ZM145,57.8c.3.4.6.6.9.8.3-.2.5-.4.8-.8h-1.7Z"/>
  </g>
  <g>
    <path class="cls-2" d="M127.7,27.8v-4.7h3.4v.8h-2.5v1.1h2.3v.8h-2.3v1.3h2.7v.8h-3.5Z"/>
    <path class="cls-2" d="M134.8,26.9c-.2.7-.8,1-1.5,1-1,0-1.7-.8-1.7-1.8s.6-1.8,1.7-1.8,1.3.6,1.4,1l-.7.3c0-.3-.3-.6-.8-.6s-.8.5-.8,1,.3,1,.8,1,.8-.5.8-.7l.7.4Z"/>
    <path class="cls-2" d="M137.1,27.9c-1.2,0-1.7-1-1.7-1.8s.5-1.8,1.7-1.8,1.7.5,1.7,1.8c0,.9-.6,1.8-1.7,1.8ZM137.1,27.2c.6,0,.9-.5.9-1s-.3-1.1-.9-1.1-.9.3-.9,1,.3,1.1.9,1.1Z"/>
    <path class="cls-2" d="M140.4,24.4v.4c.3-.5.9-.5,1-.5.7,0,1.1.5,1.1,1.1v2.3h-.8v-1.9c0-.4,0-.8-.6-.8s-.3,0-.4.2c-.2.2-.3.5-.3,1.1v1.5h-.8v-3.4h.8Z"/>
    <path class="cls-2" d="M145,27.9c-1.2,0-1.7-1-1.7-1.8s.5-1.8,1.7-1.8,1.7.5,1.7,1.8c0,.9-.6,1.8-1.7,1.8ZM145,27.2c.6,0,.9-.5.9-1s-.3-1.1-.9-1.1-.9.3-.9,1,.3,1.1.9,1.1Z"/>
    <path class="cls-2" d="M148.3,24.4v.4c.1-.2.5-.5,1.1-.5s.7.2.9.5c.2-.3.6-.5,1.1-.5s1.2.4,1.2,1.2v2.3h-.8v-2.1c0-.1,0-.7-.6-.7s-.4,0-.6.3c-.2.2-.2.5-.2.8v1.6h-.8v-2.1c0-.3-.1-.6-.6-.6s-.3,0-.4.2c-.3.3-.3.8-.3,1.1v1.4h-.8v-3.4h.8Z"/>
    <path class="cls-2" d="M156.2,24.4l-.9,3.1c-.1.4-.3,1-.6,1.2-.2.2-.4.2-.7.2s-.3,0-.5,0v-.7c0,0,.2,0,.2,0,.4,0,.5-.3.5-.4l-1.2-3.4h.9l.8,2.5.6-2.5h.8Z"/>
  </g>
  <g>
    <rect class="cls-5" x="132.7" y="49.3" width="17.5" height="1.9" rx=".3" ry=".3"/>
    <rect class="cls-5" x="134.1" y="43" width="3.9" height="5.3" rx=".3" ry=".3"/>
    <rect class="cls-5" x="139.5" y="41" width="3.9" height="7.3" rx=".3" ry=".3"/>
    <rect class="cls-5" x="144.8" y="39.1" width="3.9" height="9.2" rx=".3" ry=".3"/>
    <path class="cls-5" d="M134.8,39.8c0,.2.2.2.4.2l9.4-3.4c.2,0,.3,0,.4.2v.4c.2.2.3.2.4,0l2.6-2.7c.1-.1,0-.2,0-.2l-3.7-.4c-.2,0-.2,0-.2.2v.4c.2.2.1.3,0,.4l-9.4,3.4c-.2,0-.2.2-.2.4l.5,1.3Z"/>
  </g>
  <ellipse class="cls-8" cx="228.1" cy="90.5" rx="32.9" ry="32.9"/>
  <g>
    <path class="cls-7" d="M213.4,106.5c-.1.9-.2,1.2-.2,1.4h1.1v3.1h-.5v-.4h-.7v.7h-.4v-2.1c-.1.3-.3.5-.5.8l-.4-.2c.8-1,1-2.3,1.1-3.2h-.7v-.4h2.2v.4h-1.1ZM213.9,108.3h-.7v1.9h.7v-1.9ZM217.3,108.6v3h-.5v-3h-.9c0,1,0,2.2-1,3l-.5-.2c.8-.7.9-1.5.9-2.8h-.8v-.4h.8v-1.6h-.7v-.4h3.1v.4h-.5v1.6h.7v.4h-.7ZM216.9,106.5h-.9v1.6h.9v-1.6Z"/>
    <path class="cls-7" d="M223.9,107.9c0,.3-.1.4-.5.4h-.8c-.5,0-.7,0-.7-.6v-.9h-2.5v1.2h-.5v-1.6h2.5v-.7h.5c0,0,0,0,0,.1s0,0-.1.1v.4h2.5v1.5h-.4ZM223.7,111.5h-1c-.3,0-.5-.1-.5-.4s0-.3.1-.8c0-.2,0-.5.1-.8h-1c-.3.9-.7,1.7-2.1,2.3l-.3-.4c1.2-.3,1.6-.9,2-1.7h-1.8c0,0,0-.3,0-.3h1.9c0-.4.1-.7.2-1h.6c0,.1,0,.1,0,.2,0,0,0,.1-.2.1,0,.2,0,.4-.1.5h1.5c0,.4,0,.5-.3,1.4,0,.2,0,.3,0,.4,0,.2.1.2.3.2h.6c.3,0,.4-.2.5-.7l.4.3c-.2.7-.3.9-.7.9ZM221,107.4c-.3.4-.7,1.1-1.4,1.5l-.4-.4c.9-.3,1.2-1,1.5-1.5l.4.3s0,0,0,0c0,0,0,0-.2,0ZM223.8,106.9h-1.5v.8c0,.2,0,.3.3.3h.5c.3,0,.3,0,.4-.5h.3c0,.1,0-.6,0-.6Z"/>
    <path class="cls-7" d="M228.7,108.7c0,.3-.3.6-.6.6s-.6-.3-.6-.6.3-.6.6-.6.6.3.6.6Z"/>
    <path class="cls-7" d="M232.4,107.9v3.8h-.5v-5.7h2.4v1.9h-1.9ZM233.9,106.4h-1.5v.4h1.5v-.4ZM233.9,107.1h-1.5v.5h1.5v-.5ZM235.5,110v1.5h-.4v-1.5h-.8c0,.9-.5,1.3-.9,1.5l-.3-.3c.4-.2.7-.5.8-1.2h-1.1v-.4h1.1c0-.3,0-.6,0-.7h-.8v-.4h3.4v.4h-.8v.7h1.1v.4h-1.1ZM235,108.9h-.8c0,.3,0,.5,0,.7h.8v-.7ZM237.1,111.6c-.2.1-.5.1-.8.1l-.2-.5c.2,0,.5,0,.6,0,.2,0,.2-.1.2-.4v-3h-2v-1.9h2.4v4.9c0,.3,0,.5-.2.6ZM236.9,106.4h-1.5v.4h1.5v-.4ZM236.9,107.1h-1.5v.5h1.5v-.5Z"/>
    <path class="cls-7" d="M243.2,111.6h-1c-.2,0-.7,0-.7-.6v-1.1h-.8c0,.8-.5,1.5-1.9,1.7l-.3-.5c.4,0,1.6,0,1.7-1.2h-1.6v-.4h1.6v-.9h-.8v-.4c-.4.3-.8.4-1,.5l-.4-.4c.6-.2,1-.4,1.4-.7-.1-.2-.3-.3-.6-.6l.3-.3c.3.2.4.3.6.6.3-.3.5-.6.6-1h-1.4v-.4h2l.2.2c-.6,1.3-1.2,1.8-1.7,2.1h3.4v.4h-.9v.9h1.7v.4h-1.7v.8c0,.2,0,.3.4.3h.8c.2,0,.3,0,.4-.8l.5.2c-.2,1-.5,1-.9,1ZM241.5,108.6h-.8v.9h.8v-.9ZM243.9,108.7c-1.8-.7-2.4-2-2.6-2.5l.4-.3c0,.2.1.4.3.7.2-.2.4-.4.6-.6l.4.3s0,0,0,.1,0,0,0,0c0,0,0,0-.1,0-.2.2-.3.3-.5.5,0,0,.2.3.4.4.3-.3.5-.5.8-.9l.4.4s0,0,0,.1c0,0,0,0,0,0s0,0-.1,0c-.2.2-.4.4-.7.6.5.3,1,.6,1.3.7l-.4.4Z"/>
  </g>
  <g>
    <path class="cls-7" d="M223.7,71c.9,0,1.6.6,1.6,1.5s-.2,1.1-.9,1.3l1.1,1.9h-1l-.9-1.8h-.8v1.8h-.9v-4.7h1.9ZM222.6,73.3h.7c.6,0,1-.2,1-.7s-.3-.7-.9-.7h-.8v1.5Z"/>
    <path class="cls-7" d="M229.8,73.6c0,0,0,.2,0,.3,0,.1-.2.7-.5,1.1.1.2.2.2.5.2s0,0,.1,0v.7c-.1,0-.2,0-.3,0-.5,0-.7-.1-.9-.3-.2.1-.5.3-1.1.3s-1.5-.5-1.5-1.3.5-1.1,1-1.4c0-.1-.2-.3-.2-.7,0-.5.3-1.1,1.1-1.1s1.1.5,1.1,1-.2.8-.9,1.1c.2.3.4.6.6.9.2-.3.2-.6.2-.7h.8ZM227.4,73.7c-.5.2-.6.5-.6.8,0,.3.2.7.7.7s.4,0,.7-.3l-.8-1.2ZM228.3,72.3c0-.2-.2-.4-.4-.4s-.4.1-.4.3,0,.3.2.5c.2,0,.5-.2.5-.5Z"/>
    <path class="cls-7" d="M232.6,71c1.1,0,2.2.7,2.2,2.4s-.8,2.3-2.2,2.3h-1.8v-4.7h1.8ZM231.6,75h.6c1,0,1.6-.2,1.6-1.5s-.6-1.6-1.5-1.6h-.7v3.1Z"/>
  </g>
  <path class="cls-8" d="M88.3,90.5c0,18.2-14.7,32.9-32.9,32.9s-32.9-14.7-32.9-32.9,14.7-32.9,32.9-32.9,32.9,14.7,32.9,32.9Z"/>
  <g>
    <path class="cls-6" d="M35.1,106.3v-.4h2.6v-.8h.6c0,0,.1,0,.1.1,0,0,0,.1-.2.2v.6h2.6v.4h-5.7ZM40.4,110.9c-1.4-.2-2.1-.7-2.5-1-.6.5-1.4.8-2.6,1l-.3-.5c1.1-.1,1.9-.4,2.5-.9-.5-.5-.8-1.1-1-1.8h.4c.1.2.4.9.9,1.5.4-.4.6-.9.9-1.6l.5.2c-.4.9-.7,1.3-1,1.7.2.2,1,.7,2.4.8l-.3.5ZM37.3,107.1c0,0-.1,0-.2,0-.7.6-1.1.8-1.4.9l-.3-.4c.5-.2,1-.5,1.6-1.1l.4.3c0,0,0,0,0,.1s0,0,0,0ZM40.2,108c-.9-.5-1.3-.8-1.6-1.1l.3-.3c.6.5,1,.7,1.6,1l-.3.4Z"/>
    <path class="cls-6" d="M47.3,110.8h-2.9c-1,0-1.4-.2-1.7-.8-.1.1-.4.3-.7.6,0,0,0,.2,0,.2s0,0-.1,0l-.3-.4c.3-.1.5-.3,1-.7v-1.4h-.8v-.4h1.2v1.7c0,.4.3.7.6.7.2,0,.5.1,1.3.1,1.5,0,2.3-.1,2.8-.2l-.2.6ZM42.5,106.8c-.3-.6-.6-1-.8-1.4l.4-.3c.3.4.6.8.8,1.4l-.4.3ZM46.1,110.2l-.3-.5c.2,0,.3,0,.3,0,.3,0,.3,0,.3-.3v-.4h-1v1.1h-.5v-1.1h-1v1.1h-.4v-3.3h1.4c-.2-.2-.4-.3-.7-.5l.3-.4c.1,0,.1,0,.5.3.5-.4.5-.4.7-.6h-2.2v-.4h2.8l.2.3c-.5.4-.8.6-1.2,1,.2.1.2.2.3.3h1.2v2.8c0,.4,0,.6-.8.6ZM44.9,107.2h-1v.5h1v-.5ZM44.9,108.1h-1v.5h1v-.5ZM46.4,107.2h-1v.5h1v-.5ZM46.4,108.1h-1v.5h1v-.5Z"/>
    <path class="cls-6" d="M50.7,108c0,.3-.3.6-.6.6s-.6-.3-.6-.6.3-.6.6-.6.6.3.6.6Z"/>
    <path class="cls-6" d="M53.3,106.4v-.5h4.6s.1,0,.2-.1l.4.4c-.5.8-1.1,1.6-1.8,2.3l-.4-.3c.1-.1.3-.3.7-.8.4-.5.5-.7.7-1h-4.5ZM53.9,110.2c.5-.3,1-.6,1.3-1.6.3-.7.3-1.4.3-1.9h.6c0,.1,0,.1,0,.2s0,0-.1.1c0,.9-.2,1.6-.7,2.4-.3.5-.5.7-1,1.1l-.5-.4Z"/>
    <path class="cls-6" d="M63.3,106.2c0,0,.1,0,.2,0l.3.4c-.3.2-.3.3-.3.4-.5,1.4-.9,2-1.6,2.8-.4.4-.8.6-1.3,1l-.5-.4c.6-.3,1.3-.6,2-1.5.7-.9.8-1.5,1-2.1h-2c-.3.4-.6.8-1.3,1.4l-.4-.3c.4-.3.7-.6,1.2-1.2.4-.5.5-.9.6-1.1l.5.2c.1,0,.1.1.1.1,0,0,0,0-.2,0,0,.1-.1.3-.2.4h2Z"/>
    <path class="cls-6" d="M69,107s.2-.1.2-.2l.4.4c-.1.1-.2.1-.2.2-.6,1.1-.8,1.4-1.1,1.7l-.4-.2c.2-.2.7-.7,1-1.4l-2.1.2v1.7c0,.5.2.6,1,.6s.9,0,1.6-.1v.5c-.4,0-1.2,0-1.8,0-1,0-1.2-.3-1.2-.8v-1.9l-1.5.2v-.4s1.5-.1,1.5-.1v-1.6h.5s.2,0,.2.1,0,0-.2.1v1.3l2.2-.2Z"/>
    <path class="cls-6" d="M74.7,106.2c-.3.2-.3.2-.4.3-.4.8-.6,1.1-.9,1.6.6.5,1.2,1.1,1.8,1.9l-.4.4c-.2-.3-.4-.6-.8-1.1-.4-.4-.6-.6-.8-.7-.8.9-1.5,1.3-2.4,1.7l-.4-.4c.6-.2,1.2-.4,2.1-1.3.9-.8,1.1-1.5,1.4-2.1h-2.7v-.5h2.9c.1,0,.2,0,.3-.1l.4.4Z"/>
  </g>
  <g>
    <path class="cls-6" d="M38.9,76.3l-.3-.9h-1.8l-.3.9h-1l1.6-4.7h1l1.6,4.7h-.9ZM37.7,72.4l-.7,2.2h1.3l-.7-2.2Z"/>
    <path class="cls-6" d="M43.4,75.4c-.2.7-.8,1-1.5,1-1,0-1.7-.8-1.7-1.8s.6-1.8,1.7-1.8,1.3.6,1.4,1l-.7.3c0-.3-.3-.6-.8-.6s-.8.5-.8,1,.3,1,.8,1,.8-.5.8-.7l.7.4Z"/>
    <path class="cls-6" d="M47,75.4c-.2.7-.8,1-1.5,1-1,0-1.7-.8-1.7-1.8s.6-1.8,1.7-1.8,1.3.6,1.4,1l-.7.3c0-.3-.3-.6-.8-.6s-.8.5-.8,1,.3,1,.8,1,.8-.5.8-.7l.7.4Z"/>
    <path class="cls-6" d="M48.3,74.8c0,.2.2.8.9.8s.8-.3.9-.5l.7.4c-.3.4-.8.9-1.6.9s-1.7-.7-1.7-1.8.8-1.8,1.7-1.8c1.3,0,1.7,1,1.7,1.9h-2.5ZM49.9,74.2c0-.2-.1-.7-.8-.7s-.8.6-.8.7h1.6Z"/>
    <path class="cls-6" d="M53.8,74c-.2-.4-.5-.5-.9-.5s-.6,0-.6.3.2.3.7.4h.5c.5.2.9.5.9,1s-.6,1.1-1.5,1.1-1.4-.4-1.6-.6l.6-.5c.2.2.5.4,1,.4s.7-.2.7-.4-.2-.3-.5-.3h-.4c-.3-.1-1.2-.3-1.2-1.1s.6-1.1,1.4-1.1.9,0,1.4.6l-.6.5Z"/>
    <path class="cls-6" d="M57.4,74c-.2-.4-.5-.5-.9-.5s-.6,0-.6.3.2.3.7.4h.5c.5.2.9.5.9,1s-.6,1.1-1.5,1.1-1.4-.4-1.6-.6l.6-.5c.2.2.5.4,1,.4s.7-.2.7-.4-.2-.3-.5-.3h-.4c-.3-.1-1.2-.3-1.2-1.1s.6-1.1,1.4-1.1.9,0,1.4.6l-.6.5Z"/>
    <path class="cls-6" d="M58.9,72.5v-.8h.8v.8h-.8ZM58.9,76.3v-3.4h.8v3.4h-.8Z"/>
    <path class="cls-6" d="M61.5,71.6v1.7c.3-.3.8-.4,1-.4.8,0,1.5.7,1.5,1.8s-.8,1.8-1.5,1.8-.6,0-.9-.4v.3h-.8v-4.7h.8ZM62.3,75.7c.4,0,.8-.4.8-1.1s-.3-1-.8-1-.8.4-.8,1,.3,1.1.8,1.1Z"/>
    <path class="cls-6" d="M64.7,72.5v-.8h.8v.8h-.8ZM64.7,76.3v-3.4h.8v3.4h-.8Z"/>
    <path class="cls-6" d="M66.5,76.3v-4.7h.8v4.7h-.8Z"/>
    <path class="cls-6" d="M68.3,72.5v-.8h.8v.8h-.8ZM68.3,76.3v-3.4h.8v3.4h-.8Z"/>
    <path class="cls-6" d="M69.7,73h.5v-1.2h.8v1.2h.7v.6h-.7v1.7c0,.1,0,.3,0,.4,0,.1.3.1.3.1.1,0,.2,0,.3,0v.7c-.1,0-.3,0-.6,0-.7,0-.9-.3-.9-.8v-2h-.5v-.6Z"/>
    <path class="cls-6" d="M75.1,73l-.9,3.1c-.1.4-.3,1-.6,1.2-.2.2-.4.2-.7.2s-.3,0-.5,0v-.7c0,0,.2,0,.2,0,.4,0,.5-.3.5-.4l-1.2-3.4h.9l.8,2.5.6-2.5h.8Z"/>
  </g>
  <g>
    <rect class="cls-5" x="225.8" y="96.6" width="4.6" height="1.2" rx=".3" ry=".3"/>
    <path class="cls-5" d="M229.8,98.8h-3.4c-.2,0-.3.1-.3.3v.5c0,.2.1.3.3.3h.6c0,.5.5,1,1.1,1s1.1-.4,1.1-1h.6c.2,0,.3-.1.3-.3v-.5c0-.2-.1-.3-.3-.3Z"/>
    <path class="cls-5" d="M228.1,84.5c-2.9,0-5.3,2.3-5.3,5.1s.6,2.7,1.6,3.6h0c.7.7,1.1,1.6,1.2,2,0,.1.2.2.3.2h4.4c.1,0,.3,0,.3-.2.1-.4.5-1.3,1.2-2h0c1-.9,1.6-2.2,1.6-3.6,0-2.8-2.4-5.1-5.3-5.1Z"/>
    <path class="cls-5" d="M228.1,83.4c.4,0,.7-.3.7-.7v-1.6c0-.4-.3-.7-.7-.7s-.7.3-.7.7v1.6c0,.4.3.7.7.7Z"/>
    <path class="cls-5" d="M233.7,81.8c-.1-.1-.3-.2-.5-.2-.2,0-.3.1-.5.2l-1,1.2c-.2.3-.2.7,0,.9.1.1.3.2.4.2s.4,0,.5-.2l1-1.2c.2-.3.2-.7,0-.9Z"/>
    <path class="cls-5" d="M224,84.2c.2,0,.3,0,.4-.2.3-.2.3-.7,0-.9l-1-1.2c-.1-.1-.3-.2-.5-.2-.2,0-.4,0-.5.2-.3.2-.3.7,0,.9l1,1.2c.1.2.3.2.5.2Z"/>
  </g>
  <g>
    <path class="cls-5" d="M234.7,196.3l-2.8-2.8c0,0-.1,0-.2,0h-3.4c0,0-.1,0-.2,0l-2,2c-.5.5-1.2.5-1.7,0h0c-.5-.5-.5-1.2,0-1.7l3.1-3.1s.1,0,.2,0l4.6-.6c0,0,.1,0,.2,0l1.6-1.6c.1-.1.3-.1.4,0l4.2,4.2c.1.1.1.3,0,.4l-3.4,3.4c-.1.1-.3.1-.4,0Z"/>
    <path class="cls-5" d="M228.9,200.6c.4-.4.3-1-.1-1.5-.4-.4-.9-.5-1.3-.3,0-.3-.2-.5-.4-.7-.4-.4-.9-.5-1.3-.3,0-.3-.2-.5-.4-.7-.4-.4-.9-.5-1.3-.3,0-.3-.2-.5-.4-.7-.4-.4-1.1-.5-1.5-.1h0l-1.4,1.4h0s0,0,0,0c-.4.4-.3,1,.1,1.5.4.4.9.5,1.3.3,0,.3.2.5.4.7.4.4.9.5,1.3.3,0,.3.2.5.4.7.4.4.9.5,1.3.3,0,.3.2.5.4.7.4.4,1.1.5,1.5.1,0,0,0,0,0,0l1.4-1.4s0,0,0,0Z"/>
    <g>
      <path class="cls-5" d="M217.6,192.5l4.2-4.2c.1-.1.3-.1.4,0l1.6,1.6s.1,0,.2,0l1.9.3c.2,0,.3.3.2.5l-2.4,2.4c-.5.5-.7,1.1-.6,1.7,0,0-.2,0-.3,0-.5,0-.9.2-1.3.5l-.5.5c-.1.1-.3.1-.4,0l-3-3c-.1-.1-.1-.3,0-.4Z"/>
      <polygon class="cls-5" points="228.9 200.6 228.9 200.6 228.9 200.6 228.9 200.6"/>
      <path class="cls-5" d="M234.9,197.8h0s-.8-.8-.8-.8c0,0,0,0,0,0l-2.5-2.5c0,0-.1,0-.2,0h-2.7c0,0-.1,0-.2,0l-1.7,1.7c-.2.2-.4.3-.6.4,0,0,.1.2.2.2.5,0,1,.3,1.4.7,0,0,.2.2.2.3,0,0,.1.1.2.1.5,0,.9.3,1.3.6.8.8.9,2.1.1,2.8l-.9.9c-.2.2,0,.5.2.5.3,0,.6-.1.9-.4.1-.1.2-.3.3-.5,0-.1.2-.2.3-.2.3,0,.7,0,1-.4.1-.1.2-.3.3-.5,0-.1.2-.2.3-.2.3,0,.7,0,1-.4.1-.1.2-.3.3-.5,0-.1.2-.2.3-.2.3,0,.7,0,1-.4.4-.4.5-1.1.1-1.5h0Z"/>
      <line class="cls-5" x1="223.8" y1="196.2" x2="223.8" y2="196.2"/>
    </g>
  </g>
  <g>
    <path class="cls-5" d="M63.1,90.6h-7.7c-.2,0-.3.1-.3.3v7.7c0,.2.1.3.3.3h0c.3,0,.4.3.2.5l-.4.4c-.1.1-.1.3,0,.4l.2.2c.1.1.3.1.4,0l1.5-1.5c0,0,.1,0,.2,0h3.1c0,0,.2,0,.2,0l1.5,1.5c.1.1.3.1.4,0l.2-.2c.1-.1.1-.3,0-.4l-.4-.4c-.2-.2,0-.5.2-.5h0c.2,0,.3-.1.3-.3v-7.7c0-.2-.1-.3-.3-.3ZM57.6,97.8c-.8.6-1.7-.3-1.1-1.1,0,0,0,0,0,0,.8-.5,1.7.3,1.1,1.1,0,0,0,0,0,0ZM56.3,94.5v-1.8c0-.2.1-.3.3-.3h5.3c.2,0,.3.1.3.3v1.8c0,.2-.1.3-.3.3h-5.3c-.2,0-.3-.1-.3-.3ZM62,97.8c-.7.5-1.5-.1-1.3-.8,0-.3.3-.5.6-.6.7-.2,1.3.6.8,1.3,0,0,0,0,0,0Z"/>
    <path class="cls-5" d="M54,83.5l-4.3-1.6c0,0-.1,0-.2,0l-1.4.4c-.3,0-.3.4,0,.6l3.1,2.2c0,0,.2,0,.3,0l2.6-.9c.3,0,.3-.5,0-.6ZM60.3,84c-.4-1.2-2.6-.7-2.8-.6,0,0,0,0,0,0l-8.7,3.5c0,0-.2,0-.2,0l-1.9-.8c0,0-.2,0-.3,0l-.9.4c-.2,0-.2.4,0,.5l.6.6c.2.2.1.4,0,.5l-1.2.5h0s0,0,0,0c-.2,0-.3.3-.2.4,0,0,0,0,0,0h0s0,0,0,.1c0,0,0,0,0,0,.1.1.4.2.4.2l3.7.3s0,0,.1,0l3.1-1.1c.2,0,.5.1.4.4l-.9,3.2c0,.3.2.5.4.4l1.4-.6c0,0,.1,0,.1-.1l2.6-4.7c0,0,0-.1.2-.1l2.5-.9s2.2-.7,1.8-2Z"/>
  </g>
</svg>